<?xml version="1.0" encoding="utf-8"?>
<!-- Generator: Adobe Illustrator 16.0.3, SVG Export Plug-In . SVG Version: 6.00 Build 0)  -->
<!DOCTYPE svg PUBLIC "-//W3C//DTD SVG 1.1//EN" "http://www.w3.org/Graphics/SVG/1.1/DTD/svg11.dtd">
<svg version="1.1" id="Layer_1" xmlns="http://www.w3.org/2000/svg" xmlns:xlink="http://www.w3.org/1999/xlink" x="0px" y="0px"
	 width="1920px" height="120px" viewBox="0 0 1920 120" enable-background="new 0 0 1920 120" xml:space="preserve">
<path fill="#FFFFFF" d="M-6.873,2.627c0,0,344.681,26.595,518.085,22.34s598.936-18.084,706.383-12.766
	s728.725,35.106,728.725,35.106l2.128,106.383l-1964.895,1.063L-6.873,2.627z"/>
<path fill="#493487" d="M0-0.713c30.222,5.667,210.221,20.111,456.888,17.889S1006.89-0.713,1149.111-0.713
	s293.334,4.555,755.556,27.889S1920,63.843,1920,63.843S1237,10.287,780,23.287c-127.488,3.626-273.509,11.5-452,7
	S119.857,24.88,0,8.381S0-0.713,0-0.713z"/>
<path fill="#88A4EB" d="M-210.062-3.755c431.915,81.915,888.297,42.553,888.297,42.553S418.067,67.925,195.257,60.074
	C-183.835,46.716-210.062-3.755-210.062-3.755z"/>
<path fill="#88A4EB" d="M1181,36.287c17,1,218-11,733,44c52.935,5.653,63,11,63,11l-6,24c0,0,142.215,62.153-40,4
	C1743,59.287,1181,36.287,1181,36.287z"/>
</svg>
