<?xml version="1.0" encoding="utf-8"?>
<!-- Generator: Adobe Illustrator 16.0.3, SVG Export Plug-In . SVG Version: 6.00 Build 0)  -->
<!DOCTYPE svg PUBLIC "-//W3C//DTD SVG 1.1//EN" "http://www.w3.org/Graphics/SVG/1.1/DTD/svg11.dtd">
<svg version="1.1" id="Layer_1" xmlns="http://www.w3.org/2000/svg" xmlns:xlink="http://www.w3.org/1999/xlink" x="0px" y="0px"
	 width="200px" height="200px" viewBox="0 0 200 200" enable-background="new 0 0 200 200" xml:space="preserve">
<g display="none">
	<path display="inline" fill="#493487" d="M100,14.227c-5.407-0.168-31.773,1.364-36.318,27.728s8.409,50.682,16.364,56.818
		s16.5,7.045,19.955,7.045s14.364,0,25.046-12.728c10.682-12.727,12.76-36.139,12.045-46.591
		C136.333,35.418,129.273,15.136,100,14.227z"/>
	<path display="inline" fill="#493487" d="M70.5,101.5c-2.955,1.363-13.182,5.227-16.136,6.363s-9.792,3.626-13.182,9.546
		c-4.348,7.591-9.284,32.269-9.545,49.091c-0.026,1.667,0,3.917,2.53,5.917c1.675,1.324,58.096,27.567,128.833,1.811
		c3.712-1.352,4.629-2.417,5.228-6.137c1.355-8.423-2.727-36.427-7.894-47.59c-4.667-10.083-13.181-12.452-15.516-13.092
		c-5.585-1.53-15.228-5.909-15.228-5.909s-4.614,4.401-9.841,7.583s-13.016,5.137-19.776,5.25C80.917,114.651,70.5,101.5,70.5,101.5
		z"/>
	<circle display="inline" fill="#F9F9F9" cx="100.061" cy="53.773" r="25.666"/>
	<g display="inline">
		<circle fill="#493487" cx="100.061" cy="48.773" r="7.257"/>
		<path fill="#493487" d="M103,59c0,1.657-1.343,2.417-3,2.417c0,0-3,0-3-2.417v-2.545l-2.294-2.796
			c0-1.657,3.616-1.325,5.272-1.325l0,0c1.657,0,5.712-0.639,5.712,1.018L103,56.455V59z"/>
	</g>
	<g display="inline">
		<g>
			<path fill="#493487" d="M79.323,49.46c0.008-0.276,0.238-0.495,0.514-0.486l9.997,0.278c0.275,0.009,0.492,0.238,0.485,0.514l0,0
				c-0.007,0.276-0.237,0.494-0.514,0.486l-9.996-0.279C79.533,49.965,79.316,49.737,79.323,49.46L79.323,49.46z"/>
		</g>
		<g>
			<path fill="#493487" d="M81,41.577c0.113-0.253,0.408-0.368,0.66-0.254l9.144,4.051c0.251,0.113,0.365,0.407,0.253,0.66l0,0
				c-0.111,0.253-0.406,0.367-0.659,0.254l-9.143-4.051C81.002,42.123,80.888,41.83,81,41.577L81,41.577z"/>
		</g>
		<g>
			<path fill="#493487" d="M85.542,34.918c0.2-0.191,0.517-0.186,0.708,0.015l6.922,7.217c0.19,0.2,0.183,0.515-0.016,0.707l0,0
				c-0.199,0.192-0.515,0.185-0.707-0.015l-6.922-7.217C85.337,35.425,85.343,35.11,85.542,34.918L85.542,34.918z"/>
		</g>
		<g>
			<path fill="#493487" d="M92.271,30.482c0.258-0.101,0.548,0.024,0.649,0.282l3.666,9.304c0.1,0.257-0.026,0.546-0.282,0.648l0,0
				c-0.257,0.102-0.547-0.024-0.648-0.282L91.99,31.13C91.889,30.873,92.014,30.584,92.271,30.482L92.271,30.482z"/>
		</g>
		<g>
			<path fill="#493487" d="M100.181,28.931c0.276,0.004,0.498,0.23,0.493,0.507l-0.139,9.999c-0.005,0.276-0.231,0.496-0.507,0.493
				l0,0c-0.277-0.003-0.497-0.23-0.493-0.507l0.139-9.999C99.679,29.147,99.904,28.927,100.181,28.931L100.181,28.931z"/>
		</g>
		<g>
			<path fill="#493487" d="M108.088,30.497c0.254,0.109,0.373,0.402,0.264,0.657l-3.923,9.198c-0.109,0.254-0.402,0.371-0.656,0.264
				l0,0c-0.255-0.108-0.372-0.402-0.264-0.656l3.923-9.198C107.541,30.506,107.833,30.389,108.088,30.497L108.088,30.497z"/>
		</g>
		<g>
			<path fill="#493487" d="M114.809,34.946c0.194,0.197,0.192,0.514-0.005,0.708l-7.12,7.022c-0.197,0.193-0.513,0.191-0.707-0.005
				l0,0c-0.194-0.197-0.191-0.513,0.005-0.707l7.12-7.021C114.299,34.747,114.614,34.75,114.809,34.946L114.809,34.946z"/>
		</g>
		<g>
			<path fill="#493487" d="M119.339,41.613c0.104,0.256-0.018,0.548-0.273,0.652l-9.252,3.795c-0.256,0.104-0.547-0.018-0.652-0.273
				l0,0c-0.104-0.256,0.018-0.547,0.273-0.652l9.252-3.794C118.942,41.235,119.233,41.357,119.339,41.613L119.339,41.613z"/>
		</g>
		<g>
			<path fill="#493487" d="M121,49.5c0,0.276-0.224,0.5-0.5,0.5h-10c-0.276,0-0.5-0.224-0.5-0.5l0,0c0-0.276,0.224-0.5,0.5-0.5h10
				C120.776,49,121,49.224,121,49.5L121,49.5z"/>
		</g>
	</g>
</g>
<g>
	<path display="none" fill="#493487" d="M99-1.773c-5.407-0.168-31.773,1.364-36.318,27.728s8.409,50.682,16.364,56.818
		s16.5,7.045,19.955,7.045s14.364,0,25.046-12.728c10.682-12.727,12.76-36.139,12.045-46.591C135.333,19.418,128.273-0.864,99-1.773
		z"/>
	<path display="none" fill="#493487" d="M69.5,85.5c-2.955,1.363-13.182,5.227-16.136,6.363s-9.792,3.626-13.182,9.546
		c-4.348,7.591-9.284,32.269-9.545,49.091c-0.026,1.667,0,3.917,2.53,5.917c1.675,1.324,58.096,27.567,128.833,1.811
		c3.712-1.352,4.629-2.417,5.228-6.137c1.355-8.423-2.727-36.427-7.894-47.59c-4.667-10.083-13.181-12.452-15.516-13.092
		c-5.585-1.53-15.228-5.909-15.228-5.909s-4.614,4.401-9.841,7.583s-13.016,5.137-19.776,5.25C79.917,98.651,69.5,85.5,69.5,85.5z"
		/>
	<circle fill="#F9F9F9" cx="99.061" cy="37.773" r="25.666"/>
	<g>
		<circle fill="#493487" cx="99.061" cy="32.773" r="7.257"/>
		<path fill="#493487" d="M102,43c0,1.657-1.343,2.417-3,2.417c0,0-3,0-3-2.417v-2.545l-2.294-2.796
			c0-1.657,3.616-1.325,5.272-1.325l0,0c1.657,0,5.712-0.639,5.712,1.018L102,40.455V43z"/>
	</g>
	<path fill="#493487" d="M99.006,6.791C94.14,6.639,70.411,8.018,66.32,31.745s7.568,45.614,14.727,51.137
		c7.159,5.522,14.851,6.341,17.959,6.341s12.927,0,22.541-11.455c9.614-11.454,11.484-32.524,10.841-41.932
		C131.706,25.862,125.352,7.608,99.006,6.791z"/>
	<path fill="#493487" d="M72.456,85.336c-2.659,1.227-11.863,4.704-14.522,5.727s-8.813,3.263-11.864,8.591
		c-3.914,6.832-8.356,29.041-8.591,44.182c-0.023,1.5,0,3.525,2.277,5.325c1.508,1.192,52.287,24.812,115.95,1.63
		c3.341-1.217,4.166-2.176,4.705-5.523c1.22-7.58-2.454-32.783-7.104-42.83c-4.2-9.075-11.862-11.208-13.964-11.783
		c-5.026-1.377-13.705-5.318-13.705-5.318s-4.153,3.961-8.856,6.824c-4.704,2.864-11.715,4.623-17.798,4.726
		C81.832,97.172,72.456,85.336,72.456,85.336z"/>
	<circle fill="#F9F9F9" cx="99.062" cy="42.382" r="23.1"/>
	<g>
		<circle fill="#493487" cx="99.061" cy="42.882" r="6.531"/>
		<path fill="#493487" d="M102,52.086c0,1.491-1.509,2.175-3,2.175c0,0-3,0-3-2.175v-2.291l-1.911-2.517
			c0-1.491,3.33-1.192,4.821-1.192l0,0c1.492,0,5.325-0.575,5.325,0.916L102,49.795V52.086z"/>
	</g>
	<g>
		<g>
			<path fill="#493487" d="M78.323,43.46c0.008-0.276,0.238-0.495,0.514-0.486l9.997,0.278c0.275,0.009,0.492,0.238,0.484,0.514l0,0
				c-0.007,0.276-0.236,0.494-0.513,0.486l-9.996-0.279C78.533,43.965,78.316,43.737,78.323,43.46L78.323,43.46z"/>
		</g>
		<g>
			<path fill="#493487" d="M80,35.577c0.113-0.253,0.408-0.368,0.66-0.254l9.144,4.051c0.251,0.113,0.365,0.407,0.253,0.66l0,0
				c-0.111,0.253-0.406,0.367-0.659,0.254l-9.143-4.051C80.002,36.123,79.888,35.83,80,35.577L80,35.577z"/>
		</g>
		<g>
			<path fill="#493487" d="M84.542,28.918c0.2-0.191,0.517-0.186,0.708,0.015l6.922,7.217c0.19,0.2,0.183,0.515-0.016,0.707l0,0
				c-0.199,0.192-0.515,0.185-0.707-0.015l-6.922-7.217C84.337,29.425,84.343,29.11,84.542,28.918L84.542,28.918z"/>
		</g>
		<g>
			<path fill="#493487" d="M91.271,24.482c0.258-0.101,0.548,0.024,0.649,0.282l3.666,9.304c0.1,0.257-0.026,0.546-0.282,0.648l0,0
				c-0.257,0.102-0.547-0.024-0.648-0.282L90.99,25.13C90.889,24.873,91.014,24.584,91.271,24.482L91.271,24.482z"/>
		</g>
		<g>
			<path fill="#493487" d="M99.181,22.931c0.276,0.004,0.498,0.23,0.493,0.507l-0.139,9.999c-0.005,0.276-0.231,0.496-0.507,0.493
				l0,0c-0.277-0.003-0.497-0.23-0.493-0.507l0.139-9.999C98.679,23.147,98.904,22.927,99.181,22.931L99.181,22.931z"/>
		</g>
		<g>
			<path fill="#493487" d="M107.088,24.497c0.254,0.109,0.373,0.402,0.264,0.657l-3.923,9.198c-0.109,0.254-0.402,0.371-0.656,0.264
				l0,0c-0.255-0.108-0.372-0.402-0.264-0.656l3.923-9.198C106.541,24.506,106.833,24.389,107.088,24.497L107.088,24.497z"/>
		</g>
		<g>
			<path fill="#493487" d="M113.809,28.946c0.194,0.197,0.192,0.514-0.005,0.708l-7.12,7.022c-0.197,0.193-0.513,0.191-0.707-0.005
				l0,0c-0.194-0.197-0.191-0.513,0.005-0.707l7.12-7.021C113.299,28.747,113.614,28.75,113.809,28.946L113.809,28.946z"/>
		</g>
		<g>
			<path fill="#493487" d="M118.339,35.613c0.104,0.256-0.018,0.548-0.273,0.652l-9.252,3.795c-0.256,0.104-0.547-0.018-0.652-0.273
				l0,0c-0.104-0.256,0.018-0.547,0.273-0.652l9.252-3.794C117.942,35.235,118.233,35.357,118.339,35.613L118.339,35.613z"/>
		</g>
		<g>
			<path fill="#493487" d="M120,43.5c0,0.276-0.224,0.5-0.5,0.5h-10c-0.276,0-0.5-0.224-0.5-0.5l0,0c0-0.276,0.224-0.5,0.5-0.5h10
				C119.776,43,120,43.224,120,43.5L120,43.5z"/>
		</g>
	</g>
</g>
<rect x="10.955" y="166.272" fill="none" width="180.682" height="29.546"/>
<text transform="matrix(1 0 0 1 32.2598 185.6045)" fill="#493487" font-family="'ArialMT'" font-size="27">Learn More</text>
</svg>
