<?xml version="1.0" encoding="utf-8"?>
<!-- Generator: Adobe Illustrator 16.0.3, SVG Export Plug-In . SVG Version: 6.00 Build 0)  -->
<!DOCTYPE svg PUBLIC "-//W3C//DTD SVG 1.1//EN" "http://www.w3.org/Graphics/SVG/1.1/DTD/svg11.dtd">
<svg version="1.1" id="Layer_1" xmlns="http://www.w3.org/2000/svg" xmlns:xlink="http://www.w3.org/1999/xlink" x="0px" y="0px"
	 width="200px" height="200px" viewBox="0 0 200 200" enable-background="new 0 0 200 200" xml:space="preserve">
<rect x="57" y="22" fill="#50428E" width="121" height="10"/>
<rect x="57" y="42" fill="#50428E" width="121" height="10"/>
<rect x="57" y="62" fill="#50428E" width="121" height="10"/>
<rect x="57" y="82" fill="#50428E" width="121" height="10"/>
<polyline fill="#50428E" points="27.825,29.848 30.786,35.542 42.176,18.458 31.242,30.759 "/>
<polyline fill="#50428E" points="27.825,49.848 30.786,55.542 42.176,38.458 31.242,50.759 "/>
<polyline fill="#50428E" points="27.825,69.848 30.786,75.542 42.176,58.458 31.242,70.759 "/>
<polyline fill="#50428E" points="27.825,89.848 30.786,95.542 42.176,78.458 31.242,90.759 "/>
<rect x="20.563" y="127.641" fill="none" width="162.415" height="78.359"/>
<text transform="matrix(1 0 0 1 51.501 146.9727)"><tspan x="0" y="0" fill="#50428E" font-family="'ArialMT'" font-size="27">Register </tspan><tspan x="-16.506" y="32.399" fill="#50428E" font-family="'ArialMT'" font-size="27">Your Team </tspan></text>
<rect x="57" y="102" fill="#50428E" width="121" height="10"/>
<polyline fill="#50428E" points="27.825,109.848 30.786,115.542 42.176,98.458 31.242,110.759 "/>
</svg>
