<svg version="1.1" id="Layer_1" xmlns="http://www.w3.org/2000/svg" xmlns:xlink="http://www.w3.org/1999/xlink" x="0px" y="0px"
	 width="100%" viewBox="0 0 1500 1000" enable-background="new 0 0 1500 1000" xml:space="preserve">
<path fill="#2D5B8C" opacity="1.000000" stroke="none" 
	d="
M941.000000,1001.000000 
	C627.333313,1001.000000 314.166656,1001.000000 1.000000,1001.000000 
	C1.000000,667.666687 1.000000,334.333344 1.000000,1.000000 
	C501.000000,1.000000 1001.000000,1.000000 1501.000000,1.000000 
	C1501.000000,334.333344 1501.000000,667.666687 1501.000000,1001.000000 
	C1314.500000,1001.000000 1128.000000,1001.000000 941.000000,1001.000000 
M1471.000244,614.500000 
	C1471.000244,420.079285 1471.000244,225.658585 1471.000244,31.383232 
	C990.597534,31.383232 510.873993,31.383232 31.251135,31.383232 
	C31.251135,344.706390 31.251135,657.645813 31.251135,970.704834 
	C511.226288,970.704834 990.949768,970.704834 1471.000244,970.704834 
	C1471.000244,852.106445 1471.000244,733.803223 1471.000244,614.500000 
z"/>
<path fill="#FFFFFF" opacity="1.000000" stroke="none" 
	d="
M1471.000244,615.000000 
	C1471.000244,733.803223 1471.000244,852.106445 1471.000244,970.704834 
	C990.949768,970.704834 511.226288,970.704834 31.251135,970.704834 
	C31.251135,657.645813 31.251135,344.706390 31.251135,31.383232 
	C510.873993,31.383232 990.597534,31.383232 1471.000244,31.383232 
	C1471.000244,225.658585 1471.000244,420.079285 1471.000244,615.000000 
M393.841675,339.463318 
	C393.264465,349.392151 392.043762,359.338043 392.305908,369.244659 
	C392.530884,377.748505 395.105957,385.981049 400.618195,392.886780 
	C406.606354,400.388733 416.506195,401.096527 423.344788,394.348419 
	C425.514923,392.206970 427.165253,389.538757 429.562500,386.457275 
	C429.964935,395.023773 429.851868,402.745239 426.672272,410.028198 
	C424.736298,414.462555 421.059784,416.507843 416.170654,415.943390 
	C411.682831,415.425323 410.369354,412.047302 409.536499,408.293365 
	C409.298737,407.221863 408.997528,406.164398 408.790100,405.353394 
	C403.625641,405.353394 398.872833,405.353394 394.158539,405.353394 
	C393.565491,418.495697 398.422272,427.900055 407.363708,431.314148 
	C421.369751,436.662170 435.993744,430.285095 440.986359,416.211884 
	C442.686615,411.419128 443.911774,406.207214 444.044800,401.152344 
	C444.627106,379.022614 444.736725,356.880341 444.998322,334.742371 
	C445.046814,330.638000 445.005249,326.532532 445.005249,322.283203 
	C440.056427,322.283203 435.491150,322.283203 430.583282,322.283203 
	C430.284485,325.593781 430.008362,328.653198 429.662994,332.479950 
	C427.961365,330.067596 426.726440,328.178986 425.355011,326.395386 
	C417.402771,316.053406 405.494965,316.567780 398.763275,327.737885 
	C396.728851,331.113617 395.548859,335.004211 393.841675,339.463318 
M563.887390,702.994568 
	C583.455688,706.037170 594.163391,698.964355 597.375488,679.255127 
	C598.823853,670.367981 598.441772,660.989136 597.499939,651.978638 
	C596.937805,646.599792 594.466064,640.992188 591.471558,636.385193 
	C585.272217,626.847412 573.019226,626.498779 565.503601,635.033691 
	C564.814270,635.816528 564.596924,637.014954 564.160339,638.020386 
	C563.947021,637.617615 563.733704,637.214844 563.520386,636.812134 
	C563.520386,628.950500 563.520386,621.088928 563.520386,612.738159 
	C574.068909,612.738159 583.803040,612.738159 593.539307,612.738159 
	C593.539307,605.292175 593.539307,598.373779 593.539307,591.251953 
	C578.842407,591.251953 564.444336,591.251953 549.514038,591.251953 
	C548.953247,613.198059 548.398743,634.900024 547.833862,657.004883 
	C551.148438,657.004883 553.792419,656.850891 556.411621,657.040100 
	C560.593262,657.342224 563.575012,656.948059 565.621704,652.078613 
	C568.078918,646.232483 575.856384,646.284180 578.787354,651.954224 
	C583.236328,660.560730 583.367126,669.708008 578.999146,678.335815 
	C577.866150,680.573669 574.049438,682.724365 571.543396,682.638550 
	C569.030151,682.552551 566.086182,680.042114 564.316223,677.812195 
	C562.792664,675.892639 562.656433,672.871887 561.901550,670.320557 
	C556.888123,670.320557 551.981018,670.320557 547.115723,670.320557 
	C545.487610,686.454956 551.249634,698.013611 563.887390,702.994568 
M894.188416,683.280457 
	C895.786438,686.561890 897.063110,690.052368 899.037964,693.088745 
	C907.639832,706.314819 924.796936,706.522766 933.384827,693.270386 
	C936.311951,688.753357 938.528076,683.480469 939.809082,678.244629 
	C944.458618,659.240723 944.227661,639.964844 941.528503,620.705994 
	C940.321045,612.090454 938.090332,603.708374 932.731812,596.577026 
	C923.982483,584.932861 908.025818,584.972961 899.748535,596.972656 
	C896.875732,601.137390 894.438599,606.006470 893.309265,610.901428 
	C887.802124,634.772400 887.667908,658.706421 894.188416,683.280457 
M654.453552,592.979797 
	C643.112122,584.551636 630.057556,587.049194 623.105591,599.324219 
	C620.838989,603.326355 619.108765,607.782593 617.966431,612.244507 
	C613.529968,629.573364 613.764771,647.210815 615.430176,664.849243 
	C616.374207,674.846680 618.365601,684.652588 624.055603,693.222595 
	C632.671326,706.199280 649.565796,706.526306 658.146118,693.555908 
	C661.201355,688.937439 663.512878,683.501526 664.823120,678.112732 
	C669.485962,658.936646 669.298035,639.494324 666.382263,620.075195 
	C664.910156,610.270996 662.288025,600.833252 654.453552,592.979797 
M1001.843079,596.699646 
	C990.958191,583.792664 974.596863,585.319092 966.650879,600.160217 
	C964.630188,603.934265 963.013794,608.048950 961.964844,612.197510 
	C957.538818,629.702698 957.763184,647.492371 959.488708,665.299316 
	C960.409119,674.797058 962.340881,684.092224 967.492554,692.344971 
	C976.401672,706.617126 994.228760,706.747559 1003.003845,692.388672 
	C1005.648865,688.060547 1007.573364,683.092773 1008.850708,678.164673 
	C1013.038513,662.008118 1012.891724,645.502258 1011.560120,629.020203 
	C1010.658203,617.856567 1008.766602,606.867798 1001.843079,596.699646 
M1086.433350,334.500366 
	C1086.433350,318.752502 1086.433350,303.004608 1086.433350,287.269653 
	C1081.061646,287.269653 1076.462891,287.269653 1071.139526,287.269653 
	C1071.139526,301.831665 1071.139526,316.134033 1071.139526,331.029572 
	C1068.179932,327.761932 1066.105713,324.913422 1063.493896,322.698700 
	C1057.082520,317.261871 1048.830688,317.453461 1043.541382,323.941437 
	C1040.184204,328.059662 1037.618530,333.242737 1036.109131,338.364227 
	C1032.477539,350.685883 1032.674561,363.449005 1034.622803,376.007416 
	C1035.599243,382.302429 1037.482788,388.780914 1040.463867,394.372589 
	C1046.486694,405.669647 1058.899658,405.869415 1066.237305,395.340912 
	C1067.783447,393.122375 1069.067017,390.720947 1071.016479,387.504944 
	C1071.396851,393.026764 1071.698486,397.404633 1071.993896,401.691467 
	C1077.231934,401.691467 1081.985718,401.691467 1086.433105,401.691467 
	C1086.433105,379.415863 1086.433105,357.458130 1086.433350,334.500366 
M591.209290,397.307861 
	C600.900574,406.146332 611.138794,404.543304 617.376526,393.010925 
	C619.022339,389.968079 620.277771,386.618256 621.135315,383.261932 
	C624.357544,370.650330 624.557861,357.792358 622.240906,345.104492 
	C621.041138,338.534454 618.902771,331.725250 615.470703,326.065765 
	C609.758179,316.645844 599.150024,316.603241 592.158569,325.161926 
	C590.018677,327.781586 588.362976,330.796783 585.997437,334.367493 
	C585.626953,329.800049 585.324646,326.073303 585.025085,322.380676 
	C579.879578,322.380676 574.981567,322.380676 570.518433,322.380676 
	C570.518433,359.049469 570.518433,395.329651 570.518433,431.641663 
	C575.826172,431.641663 580.545898,431.641663 585.791016,431.641663 
	C585.791016,418.075195 585.791016,404.863861 585.791016,390.444000 
	C587.958496,393.223358 589.342529,394.998016 591.209290,397.307861 
M865.325195,291.758392 
	C865.325195,328.369659 865.325195,364.980957 865.325195,401.717010 
	C870.695618,401.717010 875.433777,401.717010 880.674988,401.717010 
	C880.674988,399.635925 880.674866,397.834747 880.674988,396.033569 
	C880.676147,383.702118 880.367004,371.359344 880.816162,359.044250 
	C881.024658,353.326172 882.331970,347.558289 883.861816,342.011749 
	C884.795349,338.626648 887.975647,336.107880 891.585938,337.228821 
	C894.237366,338.052002 897.041565,340.318176 898.432861,342.720245 
	C899.821716,345.117889 899.898376,348.481964 899.924377,351.427917 
	C900.056763,366.424438 899.986145,381.422791 899.986511,396.420502 
	C899.986511,398.183685 899.986511,399.946899 899.986511,401.716339 
	C905.397400,401.716339 910.135193,401.716339 914.912292,401.716339 
	C914.912292,381.773346 915.292236,362.115692 914.670166,342.489807 
	C914.494080,336.935333 912.186768,331.035797 909.452820,326.067047 
	C904.776306,317.567352 894.864868,316.574005 887.852844,323.318268 
	C885.418762,325.659363 883.537415,328.575073 880.707947,332.093353 
	C880.707947,316.597107 880.707947,302.057251 880.707947,286.986725 
	C876.360291,286.986725 872.564575,287.164551 868.794189,286.931274 
	C865.694214,286.739502 865.052612,288.253021 865.325195,291.758392 
M719.205444,386.458557 
	C719.205444,377.297943 719.334595,368.134888 719.164490,358.977448 
	C719.028748,351.670532 719.170532,344.270111 718.048889,337.089294 
	C716.050049,324.292908 708.224243,318.434784 695.381836,318.997772 
	C680.927490,319.631409 671.149597,330.673584 673.532593,343.738434 
	C678.276489,343.738434 683.026978,343.738434 687.705688,343.738434 
	C689.539795,336.537811 692.508301,334.056885 697.808899,335.084198 
	C702.585754,336.009979 704.869202,341.989624 703.295471,349.997131 
	C699.732666,349.997131 696.091064,349.890289 692.457764,350.018250 
	C683.464050,350.334869 675.676697,352.548767 672.568298,362.459686 
	C669.656372,371.744080 669.069153,381.052521 671.634521,390.477234 
	C673.367188,396.842926 676.823242,401.930054 683.777039,402.820404 
	C690.860779,403.727386 696.801392,401.019501 701.060181,395.088715 
	C701.940491,393.862762 702.781921,392.608948 704.163818,390.613403 
	C704.648254,395.061096 705.016296,398.439911 705.370911,401.696198 
	C710.596985,401.696198 715.194946,401.696198 719.205444,401.696198 
	C719.205444,396.734680 719.205444,392.087799 719.205444,386.458557 
M468.877289,328.427887 
	C457.943481,347.962646 458.490906,368.206268 465.924133,388.508301 
	C469.373444,397.929260 477.006836,402.884766 487.174500,402.950775 
	C497.493195,403.017761 505.897491,398.901154 509.944763,389.083740 
	C517.635742,370.427765 517.791382,351.254486 509.712891,332.868164 
	C502.412506,316.252808 481.598236,314.136139 468.877289,328.427887 
M323.401184,371.017578 
	C324.325256,375.566925 324.828125,380.253204 326.254486,384.639221 
	C330.127899,396.549896 338.122650,402.802063 348.986176,403.005646 
	C360.861542,403.228180 369.942657,397.239410 373.726807,385.143311 
	C378.870880,368.700043 378.942566,351.967804 373.032349,335.634399 
	C368.996124,324.479828 360.423340,318.809357 349.498138,318.994873 
	C338.869141,319.175293 330.984192,325.121155 326.797821,336.130585 
	C322.611237,347.140533 322.464142,358.573425 323.401184,371.017578 
M933.070923,381.254272 
	C933.552795,382.670227 934.001709,384.098419 934.521912,385.500153 
	C938.735046,396.853790 946.319153,402.778259 956.905579,403.005554 
	C968.511108,403.254730 977.317627,397.791168 981.279968,386.108917 
	C987.177856,368.720184 987.222412,351.012512 980.241821,333.850891 
	C975.500732,322.195038 964.784851,317.217407 952.634460,319.705963 
	C940.758057,322.138458 935.795227,330.892700 933.126770,341.331635 
	C929.816956,354.279144 930.171082,367.390015 933.070923,381.254272 
M809.889954,397.678070 
	C817.840576,404.250946 826.665527,404.614990 835.550659,400.403717 
	C845.479980,395.697510 847.109741,386.259735 848.094421,376.269012 
	C842.983887,376.269012 838.221436,376.269012 833.347473,376.269012 
	C833.079163,377.487579 833.195496,378.951538 832.519714,379.660492 
	C830.369873,381.916016 828.085632,385.290558 825.549377,385.581268 
	C822.993225,385.874268 818.959839,383.667175 817.567627,381.354950 
	C815.338013,377.651947 814.753540,372.958282 813.246155,367.923248 
	C826.016113,367.923248 837.273987,367.923248 848.463928,367.923248 
	C849.973328,357.413513 847.245178,339.346680 843.026611,331.004822 
	C840.291077,325.595581 836.475281,321.433899 830.385254,319.796051 
	C818.760254,316.669708 807.985840,322.718445 803.180359,335.796356 
	C797.878479,350.225250 797.251465,365.215637 800.969238,380.013611 
	C802.487183,386.055634 806.493164,391.472565 809.889954,397.678070 
M1140.487549,368.004333 
	C1144.579956,368.004333 1148.672485,368.004333 1153.046631,368.004333 
	C1152.739746,355.955658 1152.473511,344.647675 1148.291748,333.887573 
	C1145.720459,327.271637 1141.800049,321.861084 1134.521118,319.836670 
	C1124.061768,316.927765 1113.894165,321.300873 1108.996094,332.115875 
	C1100.645386,350.554535 1100.425903,369.697357 1107.561646,388.484467 
	C1112.251343,400.831329 1123.389404,405.462097 1136.121704,401.917511 
	C1145.970947,399.175537 1152.637573,388.139374 1151.520874,376.286041 
	C1146.782227,376.286041 1142.035522,376.286041 1137.359375,376.286041 
	C1135.771729,383.181427 1133.620239,385.720856 1129.321045,385.986115 
	C1124.808594,386.264496 1121.343750,383.486908 1119.557983,377.623260 
	C1118.669189,374.704956 1118.417114,371.592712 1117.776367,368.004211 
	C1125.551880,368.004211 1132.521240,368.004211 1140.487549,368.004333 
M771.088013,371.038300 
	C770.217285,373.551483 769.822815,376.399261 768.352844,378.491425 
	C766.598267,380.988617 764.258057,383.804443 761.566284,384.739227 
	C757.689758,386.085419 754.779663,383.095520 753.640381,379.555023 
	C749.485107,366.641876 749.580078,353.616455 754.419128,340.943665 
	C755.250183,338.767151 758.859680,336.310089 761.100464,336.389465 
	C763.354309,336.469360 766.119019,339.167145 767.526489,341.424500 
	C769.008728,343.801697 769.149170,347.015472 769.843384,349.736389 
	C774.945068,349.736389 779.728149,349.736389 785.796814,349.736389 
	C783.881409,343.021667 782.620728,336.685699 780.240662,330.802612 
	C777.905212,325.029877 773.216492,321.242157 766.906189,319.808990 
	C754.972229,317.098511 745.199341,322.079010 739.911194,333.909821 
	C734.290710,346.484009 733.756104,359.847382 735.601013,373.126404 
	C736.561035,380.036224 738.642090,387.331024 742.231384,393.225037 
	C750.309570,406.490112 771.888428,406.341766 779.959839,393.495850 
	C784.133301,386.853485 785.438904,379.373169 785.150513,371.001343 
	C780.551453,371.001343 776.266846,371.001343 771.088013,371.038300 
M761.861694,641.367065 
	C764.665344,635.090942 767.468994,628.814758 770.515869,621.994202 
	C765.791504,621.994202 761.956665,622.212646 758.160095,621.925110 
	C755.120911,621.694946 753.785339,622.940430 752.769470,625.642395 
	C750.874329,630.682678 748.605591,635.582397 745.959473,641.790894 
	C743.351196,635.293762 741.359497,630.091675 739.140808,624.988281 
	C738.634216,623.823059 737.385254,622.199646 736.408142,622.149597 
	C731.002869,621.872620 725.576050,622.017029 719.533264,622.017029 
	C720.405029,624.186096 720.949585,625.710693 721.618774,627.178406 
	C725.824219,636.402588 729.957947,645.661865 734.341309,654.801208 
	C735.675171,657.582214 735.798035,659.838806 734.445984,662.709900 
	C729.136963,673.983765 724.108887,685.390076 719.002747,696.758972 
	C718.289795,698.346497 717.723083,699.999695 716.939087,702.005188 
	C721.016663,702.005188 724.533264,701.731079 727.987061,702.079529 
	C731.714417,702.455505 733.655151,701.214661 734.974670,697.617126 
	C737.426880,690.931213 740.414612,684.441711 743.605225,676.858276 
	C747.144348,685.855103 750.322021,693.932922 753.401428,701.761108 
	C759.852600,701.761108 765.774475,701.761108 772.327515,701.761108 
	C768.580505,693.149536 765.805786,684.503845 761.282532,676.898010 
	C754.146790,664.899170 753.300781,653.610352 761.861694,641.367065 
M515.840332,603.516663 
	C515.840332,599.423584 515.840332,595.330566 515.840332,590.993042 
	C511.915375,590.993042 508.723969,590.716797 505.611908,591.094482 
	C503.680237,591.328918 501.482697,592.130554 500.073761,593.412964 
	C495.283875,597.772705 490.759277,602.427551 486.210999,607.046143 
	C485.229797,608.042480 483.906311,609.339600 483.873993,610.529053 
	C483.663483,618.264465 483.765900,626.008423 483.765900,633.749573 
	C484.190948,634.018188 484.615997,634.286865 485.041016,634.555542 
	C489.875092,630.759888 494.709137,626.964294 500.094482,622.735840 
	C500.094482,649.366577 500.094482,675.553040 500.094482,701.684143 
	C505.587189,701.684143 510.499329,701.684143 515.840332,701.684143 
	C515.840332,669.079163 515.840332,636.795715 515.840332,603.516663 
M848.968079,590.993469 
	C847.391174,591.680542 845.481018,592.010437 844.295532,593.116882 
	C839.313721,597.766479 834.530457,602.630066 829.722656,607.463318 
	C828.949402,608.240784 827.880981,609.251221 827.863708,610.171143 
	C827.715881,618.047363 827.778870,625.927551 827.778870,633.806519 
	C828.229858,634.044922 828.680847,634.283386 829.131836,634.521790 
	C833.958740,630.722290 838.785583,626.922852 844.057861,622.772766 
	C844.057861,649.332275 844.057861,675.425354 844.057861,701.610352 
	C849.482910,701.610352 854.510254,701.610352 859.538940,701.610352 
	C859.538940,664.624023 859.538940,628.035706 859.538940,590.992981 
	C856.113220,590.992981 852.983521,590.992981 848.968079,590.993469 
M291.158112,297.538330 
	C291.158112,332.259979 291.158112,366.981628 291.158112,401.591034 
	C296.621460,401.591034 301.338348,401.591034 305.989136,401.591034 
	C305.989136,363.277466 305.989136,325.382446 305.989136,287.329010 
	C300.995453,287.329010 296.284302,287.329010 291.158142,287.329010 
	C291.158142,290.625885 291.158142,293.590668 291.158112,297.538330 
M1016.267395,296.530762 
	C1016.267395,293.444397 1016.267395,290.358002 1016.267395,287.246826 
	C1010.897827,287.246826 1006.306885,287.246826 1001.458923,287.246826 
	C1001.458923,325.516541 1001.458923,363.530304 1001.458923,401.672058 
	C1006.486145,401.672058 1011.209045,401.672058 1016.267456,401.672058 
	C1016.267456,366.731018 1016.267456,332.125946 1016.267395,296.530762 
M640.157959,309.500031 
	C640.157959,340.227356 640.157959,370.954681 640.157959,401.606110 
	C645.604370,401.606110 650.325867,401.606110 655.003479,401.606110 
	C655.003479,363.305237 655.003479,325.407837 655.003479,287.313477 
	C650.023560,287.313477 645.310486,287.313477 640.158020,287.313477 
	C640.158020,294.586823 640.158020,301.543488 640.157959,309.500031 
M1183.447144,370.531677 
	C1183.827759,366.724884 1183.912598,362.860138 1184.644531,359.122131 
	C1186.827271,347.974884 1189.208740,345.856476 1200.185303,344.654449 
	C1200.185303,336.248108 1200.185303,327.822418 1200.185303,319.410828 
	C1193.141724,319.040924 1191.871826,320.138153 1183.692749,333.764679 
	C1183.413208,329.555634 1183.176758,325.996979 1182.927124,322.238159 
	C1177.908081,322.238159 1173.163940,322.238159 1168.374268,322.238159 
	C1168.374268,348.854706 1168.374268,375.223907 1168.374268,401.714996 
	C1173.536255,401.714996 1178.269165,401.714996 1183.441406,401.714996 
	C1183.441406,391.459564 1183.441406,381.490692 1183.447144,370.531677 
z"/>
<path fill="#08DFEC" opacity="1.000000" stroke="none" 
	d="
M393.909607,339.061157 
	C395.548859,335.004211 396.728851,331.113617 398.763275,327.737885 
	C405.494965,316.567780 417.402771,316.053406 425.355011,326.395386 
	C426.726440,328.178986 427.961365,330.067596 429.662994,332.479950 
	C430.008362,328.653198 430.284485,325.593781 430.583282,322.283203 
	C435.491150,322.283203 440.056427,322.283203 445.005249,322.283203 
	C445.005249,326.532532 445.046814,330.638000 444.998322,334.742371 
	C444.736725,356.880341 444.627106,379.022614 444.044800,401.152344 
	C443.911774,406.207214 442.686615,411.419128 440.986359,416.211884 
	C435.993744,430.285095 421.369751,436.662170 407.363708,431.314148 
	C398.422272,427.900055 393.565491,418.495697 394.158539,405.353394 
	C398.872833,405.353394 403.625641,405.353394 408.790100,405.353394 
	C408.997528,406.164398 409.298737,407.221863 409.536499,408.293365 
	C410.369354,412.047302 411.682831,415.425323 416.170654,415.943390 
	C421.059784,416.507843 424.736298,414.462555 426.672272,410.028198 
	C429.851868,402.745239 429.964935,395.023773 429.562500,386.457275 
	C427.165253,389.538757 425.514923,392.206970 423.344788,394.348419 
	C416.506195,401.096527 406.606354,400.388733 400.618195,392.886780 
	C395.105957,385.981049 392.530884,377.748505 392.305908,369.244659 
	C392.043762,359.338043 393.264465,349.392151 393.909607,339.061157 
M414.808563,380.023895 
	C420.849426,381.983826 425.027252,380.460297 427.192261,374.614288 
	C431.013306,364.296600 431.040527,353.772888 427.177185,343.417023 
	C425.765411,339.632812 423.176025,336.917358 418.632904,336.992859 
	C414.070190,337.068665 411.628632,339.981140 410.300446,343.735504 
	C406.812592,353.594604 406.681793,363.631134 410.017365,373.545410 
	C410.771545,375.787018 412.734009,377.622101 414.808563,380.023895 
z"/>
<path fill="#08DFEC" opacity="1.000000" stroke="none" 
	d="
M563.494507,702.887390 
	C551.249634,698.013611 545.487610,686.454956 547.115723,670.320557 
	C551.981018,670.320557 556.888123,670.320557 561.901550,670.320557 
	C562.656433,672.871887 562.792664,675.892639 564.316223,677.812195 
	C566.086182,680.042114 569.030151,682.552551 571.543396,682.638550 
	C574.049438,682.724365 577.866150,680.573669 578.999146,678.335815 
	C583.367126,669.708008 583.236328,660.560730 578.787354,651.954224 
	C575.856384,646.284180 568.078918,646.232483 565.621704,652.078613 
	C563.575012,656.948059 560.593262,657.342224 556.411621,657.040100 
	C553.792419,656.850891 551.148438,657.004883 547.833862,657.004883 
	C548.398743,634.900024 548.953247,613.198059 549.514038,591.251953 
	C564.444336,591.251953 578.842407,591.251953 593.539307,591.251953 
	C593.539307,598.373779 593.539307,605.292175 593.539307,612.738159 
	C583.803040,612.738159 574.068909,612.738159 563.520386,612.738159 
	C563.520386,621.088928 563.520386,628.950500 563.520386,636.812134 
	C563.733704,637.214844 563.947021,637.617615 564.160339,638.020386 
	C564.596924,637.014954 564.814270,635.816528 565.503601,635.033691 
	C573.019226,626.498779 585.272217,626.847412 591.471558,636.385193 
	C594.466064,640.992188 596.937805,646.599792 597.499939,651.978638 
	C598.441772,660.989136 598.823853,670.367981 597.375488,679.255127 
	C594.163391,698.964355 583.455688,706.037170 563.494507,702.887390 
z"/>
<path fill="#08DFEC" opacity="1.000000" stroke="none" 
	d="
M894.076538,682.902527 
	C887.667908,658.706421 887.802124,634.772400 893.309265,610.901428 
	C894.438599,606.006470 896.875732,601.137390 899.748535,596.972656 
	C908.025818,584.972961 923.982483,584.932861 932.731812,596.577026 
	C938.090332,603.708374 940.321045,612.090454 941.528503,620.705994 
	C944.227661,639.964844 944.458618,659.240723 939.809082,678.244629 
	C938.528076,683.480469 936.311951,688.753357 933.384827,693.270386 
	C924.796936,706.522766 907.639832,706.314819 899.037964,693.088745 
	C897.063110,690.052368 895.786438,686.561890 894.076538,682.902527 
M926.157288,667.603760 
	C926.216553,653.187378 926.536499,638.764526 926.176392,624.358643 
	C926.068298,620.030396 924.596313,615.496704 922.714844,611.550232 
	C921.729858,609.484131 918.497192,607.322876 916.289917,607.333679 
	C914.071716,607.344482 911.284119,609.577515 909.814331,611.609436 
	C908.250122,613.771851 907.588623,616.783264 907.138611,619.523376 
	C904.536011,635.371338 904.768066,651.304321 906.417480,667.212280 
	C906.822632,671.119446 907.641602,675.258301 909.463379,678.649658 
	C910.725952,680.999939 913.967407,683.487732 916.448059,683.621216 
	C918.617676,683.737915 921.770447,681.111084 923.027893,678.874756 
	C924.749207,675.813416 925.088440,671.974915 926.157288,667.603760 
z"/>
<path fill="#08DFEC" opacity="1.000000" stroke="none" 
	d="
M654.719971,593.222778 
	C662.288025,600.833252 664.910156,610.270996 666.382263,620.075195 
	C669.298035,639.494324 669.485962,658.936646 664.823120,678.112732 
	C663.512878,683.501526 661.201355,688.937439 658.146118,693.555908 
	C649.565796,706.526306 632.671326,706.199280 624.055603,693.222595 
	C618.365601,684.652588 616.374207,674.846680 615.430176,664.849243 
	C613.764771,647.210815 613.529968,629.573364 617.966431,612.244507 
	C619.108765,607.782593 620.838989,603.326355 623.105591,599.324219 
	C630.057556,587.049194 643.112122,584.551636 654.719971,593.222778 
M650.360657,672.709167 
	C653.054565,654.354309 653.436646,635.974426 650.084045,617.689087 
	C648.654236,609.890564 645.498108,606.815247 640.958923,607.011719 
	C636.854492,607.189331 633.522156,610.938293 632.378967,617.879211 
	C629.358948,636.216370 629.388123,654.623291 632.339966,672.964478 
	C633.507629,680.219849 636.941650,684.000122 641.284058,683.992920 
	C645.636169,683.985718 648.071045,681.092834 650.360657,672.709167 
z"/>
<path fill="#08DFEC" opacity="1.000000" stroke="none" 
	d="
M1002.044067,596.999756 
	C1008.766602,606.867798 1010.658203,617.856567 1011.560120,629.020203 
	C1012.891724,645.502258 1013.038513,662.008118 1008.850708,678.164673 
	C1007.573364,683.092773 1005.648865,688.060547 1003.003845,692.388672 
	C994.228760,706.747559 976.401672,706.617126 967.492554,692.344971 
	C962.340881,684.092224 960.409119,674.797058 959.488708,665.299316 
	C957.763184,647.492371 957.538818,629.702698 961.964844,612.197510 
	C963.013794,608.048950 964.630188,603.934265 966.650879,600.160217 
	C974.596863,585.319092 990.958191,583.792664 1002.044067,596.999756 
M996.204163,650.494507 
	C996.046082,642.675293 996.329590,634.813293 995.578064,627.051575 
	C995.058289,621.683655 993.784607,616.157837 991.625366,611.239258 
	C989.040894,605.351990 982.250793,605.383240 979.055542,610.976074 
	C977.605591,613.513916 976.648254,616.498047 976.165344,619.396057 
	C973.519897,635.274414 973.756531,651.247864 975.423096,667.189331 
	C975.848633,671.259888 976.833069,675.517395 978.692444,679.102051 
	C979.836731,681.308044 983.071838,683.539185 985.467834,683.652832 
	C987.577332,683.752808 990.142944,681.217285 991.904541,679.293823 
	C993.144958,677.939392 993.763062,675.706360 993.989807,673.786560 
	C994.865601,666.372375 995.472656,658.926514 996.204163,650.494507 
z"/>
<path fill="#09DFEB" opacity="1.000000" stroke="none" 
	d="
M1086.433228,335.000366 
	C1086.433105,357.458130 1086.433105,379.415863 1086.433105,401.691467 
	C1081.985718,401.691467 1077.231934,401.691467 1071.993896,401.691467 
	C1071.698486,397.404633 1071.396851,393.026764 1071.016479,387.504944 
	C1069.067017,390.720947 1067.783447,393.122375 1066.237305,395.340912 
	C1058.899658,405.869415 1046.486694,405.669647 1040.463867,394.372589 
	C1037.482788,388.780914 1035.599243,382.302429 1034.622803,376.007416 
	C1032.674561,363.449005 1032.477539,350.685883 1036.109131,338.364227 
	C1037.618530,333.242737 1040.184204,328.059662 1043.541382,323.941437 
	C1048.830688,317.453461 1057.082520,317.261871 1063.493896,322.698700 
	C1066.105713,324.913422 1068.179932,327.761932 1071.139526,331.029572 
	C1071.139526,316.134033 1071.139526,301.831665 1071.139526,287.269653 
	C1076.462891,287.269653 1081.061646,287.269653 1086.433350,287.269653 
	C1086.433350,303.004608 1086.433350,318.752502 1086.433228,335.000366 
M1057.420776,335.472473 
	C1055.794434,337.302551 1053.496948,338.867676 1052.652466,341.006500 
	C1047.802246,353.291229 1048.247070,365.749298 1052.673096,378.038452 
	C1053.878174,381.384277 1056.287476,384.016510 1060.465454,384.015381 
	C1064.619873,384.014252 1067.061279,381.456848 1068.313843,378.096954 
	C1072.895752,365.806976 1072.873047,353.345215 1068.417236,341.037689 
	C1066.779175,336.513245 1063.266479,334.171967 1057.420776,335.472473 
z"/>
<path fill="#09DFEB" opacity="1.000000" stroke="none" 
	d="
M590.967896,397.040283 
	C589.342529,394.998016 587.958496,393.223358 585.791016,390.444000 
	C585.791016,404.863861 585.791016,418.075195 585.791016,431.641663 
	C580.545898,431.641663 575.826172,431.641663 570.518433,431.641663 
	C570.518433,395.329651 570.518433,359.049469 570.518433,322.380676 
	C574.981567,322.380676 579.879578,322.380676 585.025085,322.380676 
	C585.324646,326.073303 585.626953,329.800049 585.997437,334.367493 
	C588.362976,330.796783 590.018677,327.781586 592.158569,325.161926 
	C599.150024,316.603241 609.758179,316.645844 615.470703,326.065765 
	C618.902771,331.725250 621.041138,338.534454 622.240906,345.104492 
	C624.557861,357.792358 624.357544,370.650330 621.135315,383.261932 
	C620.277771,386.618256 619.022339,389.968079 617.376526,393.010925 
	C611.138794,404.543304 600.900574,406.146332 590.967896,397.040283 
M604.561951,380.863434 
	C608.975098,368.817413 608.724854,356.708038 604.642212,344.694702 
	C603.379822,340.980225 600.973694,337.918640 596.319031,337.996613 
	C591.914734,338.070404 589.624084,341.040680 588.380859,344.539520 
	C584.174988,356.376465 584.373413,368.379822 588.234436,380.258484 
	C589.398621,383.840332 591.737427,386.690308 596.046631,387.002319 
	C600.227417,387.305023 602.382263,384.704590 604.561951,380.863434 
z"/>
<path fill="#0CE0EC" opacity="1.000000" stroke="none" 
	d="
M865.325928,291.290161 
	C865.052612,288.253021 865.694214,286.739502 868.794189,286.931274 
	C872.564575,287.164551 876.360291,286.986725 880.707947,286.986725 
	C880.707947,302.057251 880.707947,316.597107 880.707947,332.093353 
	C883.537415,328.575073 885.418762,325.659363 887.852844,323.318268 
	C894.864868,316.574005 904.776306,317.567352 909.452820,326.067047 
	C912.186768,331.035797 914.494080,336.935333 914.670166,342.489807 
	C915.292236,362.115692 914.912292,381.773346 914.912292,401.716339 
	C910.135193,401.716339 905.397400,401.716339 899.986511,401.716339 
	C899.986511,399.946899 899.986511,398.183685 899.986511,396.420502 
	C899.986145,381.422791 900.056763,366.424438 899.924377,351.427917 
	C899.898376,348.481964 899.821716,345.117889 898.432861,342.720245 
	C897.041565,340.318176 894.237366,338.052002 891.585938,337.228821 
	C887.975647,336.107880 884.795349,338.626648 883.861816,342.011749 
	C882.331970,347.558289 881.024658,353.326172 880.816162,359.044250 
	C880.367004,371.359344 880.676147,383.702118 880.674988,396.033569 
	C880.674866,397.834747 880.674988,399.635925 880.674988,401.717010 
	C875.433777,401.717010 870.695618,401.717010 865.325195,401.717010 
	C865.325195,364.980957 865.325195,328.369659 865.325928,291.290161 
z"/>
<path fill="#07DFEC" opacity="1.000000" stroke="none" 
	d="
M719.205444,386.949738 
	C719.205444,392.087799 719.205444,396.734680 719.205444,401.696198 
	C715.194946,401.696198 710.596985,401.696198 705.370911,401.696198 
	C705.016296,398.439911 704.648254,395.061096 704.163818,390.613403 
	C702.781921,392.608948 701.940491,393.862762 701.060181,395.088715 
	C696.801392,401.019501 690.860779,403.727386 683.777039,402.820404 
	C676.823242,401.930054 673.367188,396.842926 671.634521,390.477234 
	C669.069153,381.052521 669.656372,371.744080 672.568298,362.459686 
	C675.676697,352.548767 683.464050,350.334869 692.457764,350.018250 
	C696.091064,349.890289 699.732666,349.997131 703.295471,349.997131 
	C704.869202,341.989624 702.585754,336.009979 697.808899,335.084198 
	C692.508301,334.056885 689.539795,336.537811 687.705688,343.738434 
	C683.026978,343.738434 678.276489,343.738434 673.532593,343.738434 
	C671.149597,330.673584 680.927490,319.631409 695.381836,318.997772 
	C708.224243,318.434784 716.050049,324.292908 718.048889,337.089294 
	C719.170532,344.270111 719.028748,351.670532 719.164490,358.977448 
	C719.334595,368.134888 719.205444,377.297943 719.205444,386.949738 
M687.872681,382.542023 
	C693.089478,386.616516 698.849487,385.888031 701.311279,380.034454 
	C703.199036,375.545746 703.600159,370.431793 704.690857,365.467072 
	C689.248962,363.892456 683.216003,370.179230 687.872681,382.542023 
z"/>
<path fill="#08DFEC" opacity="1.000000" stroke="none" 
	d="
M469.094513,328.139526 
	C481.598236,314.136139 502.412506,316.252808 509.712891,332.868164 
	C517.791382,351.254486 517.635742,370.427765 509.944763,389.083740 
	C505.897491,398.901154 497.493195,403.017761 487.174500,402.950775 
	C477.006836,402.884766 469.373444,397.929260 465.924133,388.508301 
	C458.490906,368.206268 457.943481,347.962646 469.094513,328.139526 
M497.528015,345.207184 
	C496.484222,342.951691 495.737091,340.489349 494.337372,338.482056 
	C491.002441,333.699554 485.279877,333.643799 481.705933,338.261932 
	C480.607208,339.681610 479.678070,341.380768 479.188446,343.099335 
	C476.015564,354.236084 475.997345,365.438110 479.049805,376.601837 
	C479.520874,378.324707 480.390198,380.045135 481.461334,381.478149 
	C485.215668,386.500824 491.402283,386.386871 494.752441,381.082703 
	C496.230286,378.742859 497.697052,375.919586 497.789459,373.267731 
	C498.105743,364.188385 497.810577,355.087769 497.528015,345.207184 
z"/>
<path fill="#08DFEC" opacity="1.000000" stroke="none" 
	d="
M323.333832,370.560547 
	C322.464142,358.573425 322.611237,347.140533 326.797821,336.130585 
	C330.984192,325.121155 338.869141,319.175293 349.498138,318.994873 
	C360.423340,318.809357 368.996124,324.479828 373.032349,335.634399 
	C378.942566,351.967804 378.870880,368.700043 373.726807,385.143311 
	C369.942657,397.239410 360.861542,403.228180 348.986176,403.005646 
	C338.122650,402.802063 330.127899,396.549896 326.254486,384.639221 
	C324.828125,380.253204 324.325256,375.566925 323.333832,370.560547 
M355.242188,337.105255 
	C349.324097,333.290802 344.703491,334.660736 341.875702,341.455505 
	C337.912262,350.978821 338.519501,360.967682 339.708282,370.888367 
	C340.075653,373.954102 340.762268,377.409698 342.533508,379.758789 
	C344.305573,382.108948 347.585754,384.556396 350.262512,384.622375 
	C352.657623,384.681396 356.458008,382.066711 357.353058,379.749146 
	C362.812378,365.613098 363.532288,351.398132 355.242188,337.105255 
z"/>
<path fill="#08DFEC" opacity="1.000000" stroke="none" 
	d="
M932.989990,380.849213 
	C930.171082,367.390015 929.816956,354.279144 933.126770,341.331635 
	C935.795227,330.892700 940.758057,322.138458 952.634460,319.705963 
	C964.784851,317.217407 975.500732,322.195038 980.241821,333.850891 
	C987.222412,351.012512 987.177856,368.720184 981.279968,386.108917 
	C977.317627,397.791168 968.511108,403.254730 956.905579,403.005554 
	C946.319153,402.778259 938.735046,396.853790 934.521912,385.500153 
	C934.001709,384.098419 933.552795,382.670227 932.989990,380.849213 
M968.962646,353.772461 
	C968.190308,350.040253 967.782959,346.181915 966.548279,342.609467 
	C965.168945,338.618408 962.987061,334.892456 957.832520,335.018890 
	C952.753540,335.143524 950.504883,338.805328 949.284058,342.871307 
	C945.907166,354.117950 945.905151,365.516479 949.108887,376.808105 
	C950.336243,381.133881 952.668701,384.877106 957.929810,384.966522 
	C963.305176,385.057892 965.913330,381.155518 966.687988,376.880798 
	C968.008850,369.592102 968.278015,362.112823 968.962646,353.772461 
z"/>
<path fill="#07DFEC" opacity="1.000000" stroke="none" 
	d="
M809.628540,397.425964 
	C806.493164,391.472565 802.487183,386.055634 800.969238,380.013611 
	C797.251465,365.215637 797.878479,350.225250 803.180359,335.796356 
	C807.985840,322.718445 818.760254,316.669708 830.385254,319.796051 
	C836.475281,321.433899 840.291077,325.595581 843.026611,331.004822 
	C847.245178,339.346680 849.973328,357.413513 848.463928,367.923248 
	C837.273987,367.923248 826.016113,367.923248 813.246155,367.923248 
	C814.753540,372.958282 815.338013,377.651947 817.567627,381.354950 
	C818.959839,383.667175 822.993225,385.874268 825.549377,385.581268 
	C828.085632,385.290558 830.369873,381.916016 832.519714,379.660492 
	C833.195496,378.951538 833.079163,377.487579 833.347473,376.269012 
	C838.221436,376.269012 842.983887,376.269012 848.094421,376.269012 
	C847.109741,386.259735 845.479980,395.697510 835.550659,400.403717 
	C826.665527,404.614990 817.840576,404.250946 809.628540,397.425964 
M829.903503,338.530548 
	C827.293518,335.796692 824.071289,335.003052 820.819214,336.744385 
	C814.971802,339.875458 814.814148,345.760620 814.087219,351.686584 
	C820.835266,351.686584 827.235962,351.686584 834.972900,351.686584 
	C833.264404,347.026184 831.817871,343.080536 829.903503,338.530548 
z"/>
<path fill="#07DFEC" opacity="1.000000" stroke="none" 
	d="
M1139.989014,368.004272 
	C1132.521240,368.004211 1125.551880,368.004211 1117.776367,368.004211 
	C1118.417114,371.592712 1118.669189,374.704956 1119.557983,377.623260 
	C1121.343750,383.486908 1124.808594,386.264496 1129.321045,385.986115 
	C1133.620239,385.720856 1135.771729,383.181427 1137.359375,376.286041 
	C1142.035522,376.286041 1146.782227,376.286041 1151.520874,376.286041 
	C1152.637573,388.139374 1145.970947,399.175537 1136.121704,401.917511 
	C1123.389404,405.462097 1112.251343,400.831329 1107.561646,388.484467 
	C1100.425903,369.697357 1100.645386,350.554535 1108.996094,332.115875 
	C1113.894165,321.300873 1124.061768,316.927765 1134.521118,319.836670 
	C1141.800049,321.861084 1145.720459,327.271637 1148.291748,333.887573 
	C1152.473511,344.647675 1152.739746,355.955658 1153.046631,368.004333 
	C1148.672485,368.004333 1144.579956,368.004333 1139.989014,368.004272 
M1127.641846,336.001678 
	C1121.146851,337.584198 1118.313843,342.335205 1118.446289,351.685547 
	C1124.842896,351.685547 1131.241455,351.685547 1137.627930,351.685547 
	C1137.919922,342.401886 1134.954346,337.453217 1127.641846,336.001678 
z"/>
<path fill="#08DFEC" opacity="1.000000" stroke="none" 
	d="
M771.535095,371.019836 
	C776.266846,371.001343 780.551453,371.001343 785.150513,371.001343 
	C785.438904,379.373169 784.133301,386.853485 779.959839,393.495850 
	C771.888428,406.341766 750.309570,406.490112 742.231384,393.225037 
	C738.642090,387.331024 736.561035,380.036224 735.601013,373.126404 
	C733.756104,359.847382 734.290710,346.484009 739.911194,333.909821 
	C745.199341,322.079010 754.972229,317.098511 766.906189,319.808990 
	C773.216492,321.242157 777.905212,325.029877 780.240662,330.802612 
	C782.620728,336.685699 783.881409,343.021667 785.796814,349.736389 
	C779.728149,349.736389 774.945068,349.736389 769.843384,349.736389 
	C769.149170,347.015472 769.008728,343.801697 767.526489,341.424500 
	C766.119019,339.167145 763.354309,336.469360 761.100464,336.389465 
	C758.859680,336.310089 755.250183,338.767151 754.419128,340.943665 
	C749.580078,353.616455 749.485107,366.641876 753.640381,379.555023 
	C754.779663,383.095520 757.689758,386.085419 761.566284,384.739227 
	C764.258057,383.804443 766.598267,380.988617 768.352844,378.491425 
	C769.822815,376.399261 770.217285,373.551483 771.535095,371.019836 
z"/>
<path fill="#08DFEC" opacity="1.000000" stroke="none" 
	d="
M761.689270,641.703125 
	C753.300781,653.610352 754.146790,664.899170 761.282532,676.898010 
	C765.805786,684.503845 768.580505,693.149536 772.327515,701.761108 
	C765.774475,701.761108 759.852600,701.761108 753.401428,701.761108 
	C750.322021,693.932922 747.144348,685.855103 743.605225,676.858276 
	C740.414612,684.441711 737.426880,690.931213 734.974670,697.617126 
	C733.655151,701.214661 731.714417,702.455505 727.987061,702.079529 
	C724.533264,701.731079 721.016663,702.005188 716.939087,702.005188 
	C717.723083,699.999695 718.289795,698.346497 719.002747,696.758972 
	C724.108887,685.390076 729.136963,673.983765 734.445984,662.709900 
	C735.798035,659.838806 735.675171,657.582214 734.341309,654.801208 
	C729.957947,645.661865 725.824219,636.402588 721.618774,627.178406 
	C720.949585,625.710693 720.405029,624.186096 719.533264,622.017029 
	C725.576050,622.017029 731.002869,621.872620 736.408142,622.149597 
	C737.385254,622.199646 738.634216,623.823059 739.140808,624.988281 
	C741.359497,630.091675 743.351196,635.293762 745.959473,641.790894 
	C748.605591,635.582397 750.874329,630.682678 752.769470,625.642395 
	C753.785339,622.940430 755.120911,621.694946 758.160095,621.925110 
	C761.956665,622.212646 765.791504,621.994202 770.515869,621.994202 
	C767.468994,628.814758 764.665344,635.090942 761.689270,641.703125 
z"/>
<path fill="#09DFEB" opacity="1.000000" stroke="none" 
	d="
M515.840332,604.014404 
	C515.840332,636.795715 515.840332,669.079163 515.840332,701.684143 
	C510.499329,701.684143 505.587189,701.684143 500.094482,701.684143 
	C500.094482,675.553040 500.094482,649.366577 500.094482,622.735840 
	C494.709137,626.964294 489.875092,630.759888 485.041016,634.555542 
	C484.615997,634.286865 484.190948,634.018188 483.765900,633.749573 
	C483.765900,626.008423 483.663483,618.264465 483.873993,610.529053 
	C483.906311,609.339600 485.229797,608.042480 486.210999,607.046143 
	C490.759277,602.427551 495.283875,597.772705 500.073761,593.412964 
	C501.482697,592.130554 503.680237,591.328918 505.611908,591.094482 
	C508.723969,590.716797 511.915375,590.993042 515.840332,590.993042 
	C515.840332,595.330566 515.840332,599.423584 515.840332,604.014404 
z"/>
<path fill="#09DFEB" opacity="1.000000" stroke="none" 
	d="
M849.411011,590.993225 
	C852.983521,590.992981 856.113220,590.992981 859.538940,590.992981 
	C859.538940,628.035706 859.538940,664.624023 859.538940,701.610352 
	C854.510254,701.610352 849.482910,701.610352 844.057861,701.610352 
	C844.057861,675.425354 844.057861,649.332275 844.057861,622.772766 
	C838.785583,626.922852 833.958740,630.722290 829.131836,634.521790 
	C828.680847,634.283386 828.229858,634.044922 827.778870,633.806519 
	C827.778870,625.927551 827.715881,618.047363 827.863708,610.171143 
	C827.880981,609.251221 828.949402,608.240784 829.722656,607.463318 
	C834.530457,602.630066 839.313721,597.766479 844.295532,593.116882 
	C845.481018,592.010437 847.391174,591.680542 849.411011,590.993225 
z"/>
<path fill="#09DFEB" opacity="1.000000" stroke="none" 
	d="
M291.158142,297.046875 
	C291.158142,293.590668 291.158142,290.625885 291.158142,287.329010 
	C296.284302,287.329010 300.995453,287.329010 305.989136,287.329010 
	C305.989136,325.382446 305.989136,363.277466 305.989136,401.591034 
	C301.338348,401.591034 296.621460,401.591034 291.158112,401.591034 
	C291.158112,366.981628 291.158112,332.259979 291.158142,297.046875 
z"/>
<path fill="#09DFEC" opacity="1.000000" stroke="none" 
	d="
M1016.267456,297.025818 
	C1016.267456,332.125946 1016.267456,366.731018 1016.267456,401.672058 
	C1011.209045,401.672058 1006.486145,401.672058 1001.458923,401.672058 
	C1001.458923,363.530304 1001.458923,325.516541 1001.458923,287.246826 
	C1006.306885,287.246826 1010.897827,287.246826 1016.267395,287.246826 
	C1016.267395,290.358002 1016.267395,293.444397 1016.267456,297.025818 
z"/>
<path fill="#09DFEB" opacity="1.000000" stroke="none" 
	d="
M640.157959,309.000061 
	C640.158020,301.543488 640.158020,294.586823 640.158020,287.313477 
	C645.310486,287.313477 650.023560,287.313477 655.003479,287.313477 
	C655.003479,325.407837 655.003479,363.305237 655.003479,401.606110 
	C650.325867,401.606110 645.604370,401.606110 640.157959,401.606110 
	C640.157959,370.954681 640.157959,340.227356 640.157959,309.000061 
z"/>
<path fill="#09DFEB" opacity="1.000000" stroke="none" 
	d="
M1183.444336,371.026733 
	C1183.441406,381.490692 1183.441406,391.459564 1183.441406,401.714996 
	C1178.269165,401.714996 1173.536255,401.714996 1168.374268,401.714996 
	C1168.374268,375.223907 1168.374268,348.854706 1168.374268,322.238159 
	C1173.163940,322.238159 1177.908081,322.238159 1182.927124,322.238159 
	C1183.176758,325.996979 1183.413208,329.555634 1183.692749,333.764679 
	C1191.871826,320.138153 1193.141724,319.040924 1200.185303,319.410828 
	C1200.185303,327.822418 1200.185303,336.248108 1200.185303,344.654449 
	C1189.208740,345.856476 1186.827271,347.974884 1184.644531,359.122131 
	C1183.912598,362.860138 1183.827759,366.724884 1183.444336,371.026733 
z"/>
<path fill="#FBFEFE" opacity="1.000000" stroke="none" 
	d="
M414.474426,379.834106 
	C412.734009,377.622101 410.771545,375.787018 410.017365,373.545410 
	C406.681793,363.631134 406.812592,353.594604 410.300446,343.735504 
	C411.628632,339.981140 414.070190,337.068665 418.632904,336.992859 
	C423.176025,336.917358 425.765411,339.632812 427.177185,343.417023 
	C431.040527,353.772888 431.013306,364.296600 427.192261,374.614288 
	C425.027252,380.460297 420.849426,381.983826 414.474426,379.834106 
z"/>
<path fill="#FBFEFE" opacity="1.000000" stroke="none" 
	d="
M926.088623,668.036621 
	C925.088440,671.974915 924.749207,675.813416 923.027893,678.874756 
	C921.770447,681.111084 918.617676,683.737915 916.448059,683.621216 
	C913.967407,683.487732 910.725952,680.999939 909.463379,678.649658 
	C907.641602,675.258301 906.822632,671.119446 906.417480,667.212280 
	C904.768066,651.304321 904.536011,635.371338 907.138611,619.523376 
	C907.588623,616.783264 908.250122,613.771851 909.814331,611.609436 
	C911.284119,609.577515 914.071716,607.344482 916.289917,607.333679 
	C918.497192,607.322876 921.729858,609.484131 922.714844,611.550232 
	C924.596313,615.496704 926.068298,620.030396 926.176392,624.358643 
	C926.536499,638.764526 926.216553,653.187378 926.088623,668.036621 
z"/>
<path fill="#FBFEFE" opacity="1.000000" stroke="none" 
	d="
M650.239441,673.103088 
	C648.071045,681.092834 645.636169,683.985718 641.284058,683.992920 
	C636.941650,684.000122 633.507629,680.219849 632.339966,672.964478 
	C629.388123,654.623291 629.358948,636.216370 632.378967,617.879211 
	C633.522156,610.938293 636.854492,607.189331 640.958923,607.011719 
	C645.498108,606.815247 648.654236,609.890564 650.084045,617.689087 
	C653.436646,635.974426 653.054565,654.354309 650.239441,673.103088 
z"/>
<path fill="#FBFEFE" opacity="1.000000" stroke="none" 
	d="
M996.192017,650.993469 
	C995.472656,658.926514 994.865601,666.372375 993.989807,673.786560 
	C993.763062,675.706360 993.144958,677.939392 991.904541,679.293823 
	C990.142944,681.217285 987.577332,683.752808 985.467834,683.652832 
	C983.071838,683.539185 979.836731,681.308044 978.692444,679.102051 
	C976.833069,675.517395 975.848633,671.259888 975.423096,667.189331 
	C973.756531,651.247864 973.519897,635.274414 976.165344,619.396057 
	C976.648254,616.498047 977.605591,613.513916 979.055542,610.976074 
	C982.250793,605.383240 989.040894,605.351990 991.625366,611.239258 
	C993.784607,616.157837 995.058289,621.683655 995.578064,627.051575 
	C996.329590,634.813293 996.046082,642.675293 996.192017,650.993469 
z"/>
<path fill="#F9FEFE" opacity="1.000000" stroke="none" 
	d="
M1057.787720,335.333405 
	C1063.266479,334.171967 1066.779175,336.513245 1068.417236,341.037689 
	C1072.873047,353.345215 1072.895752,365.806976 1068.313843,378.096954 
	C1067.061279,381.456848 1064.619873,384.014252 1060.465454,384.015381 
	C1056.287476,384.016510 1053.878174,381.384277 1052.673096,378.038452 
	C1048.247070,365.749298 1047.802246,353.291229 1052.652466,341.006500 
	C1053.496948,338.867676 1055.794434,337.302551 1057.787720,335.333405 
z"/>
<path fill="#F9FEFE" opacity="1.000000" stroke="none" 
	d="
M604.372620,381.195282 
	C602.382263,384.704590 600.227417,387.305023 596.046631,387.002319 
	C591.737427,386.690308 589.398621,383.840332 588.234436,380.258484 
	C584.373413,368.379822 584.174988,356.376465 588.380859,344.539520 
	C589.624084,341.040680 591.914734,338.070404 596.319031,337.996613 
	C600.973694,337.918640 603.379822,340.980225 604.642212,344.694702 
	C608.724854,356.708038 608.975098,368.817413 604.372620,381.195282 
z"/>
<path fill="#F9FEFE" opacity="1.000000" stroke="none" 
	d="
M687.635132,382.221191 
	C683.216003,370.179230 689.248962,363.892456 704.690857,365.467072 
	C703.600159,370.431793 703.199036,375.545746 701.311279,380.034454 
	C698.849487,385.888031 693.089478,386.616516 687.635132,382.221191 
z"/>
<path fill="#FBFEFE" opacity="1.000000" stroke="none" 
	d="
M497.638306,345.601196 
	C497.810577,355.087769 498.105743,364.188385 497.789459,373.267731 
	C497.697052,375.919586 496.230286,378.742859 494.752441,381.082703 
	C491.402283,386.386871 485.215668,386.500824 481.461334,381.478149 
	C480.390198,380.045135 479.520874,378.324707 479.049805,376.601837 
	C475.997345,365.438110 476.015564,354.236084 479.188446,343.099335 
	C479.678070,341.380768 480.607208,339.681610 481.705933,338.261932 
	C485.279877,333.643799 491.002441,333.699554 494.337372,338.482056 
	C495.737091,340.489349 496.484222,342.951691 497.638306,345.601196 
z"/>
<path fill="#FBFEFE" opacity="1.000000" stroke="none" 
	d="
M355.513062,337.370056 
	C363.532288,351.398132 362.812378,365.613098 357.353058,379.749146 
	C356.458008,382.066711 352.657623,384.681396 350.262512,384.622375 
	C347.585754,384.556396 344.305573,382.108948 342.533508,379.758789 
	C340.762268,377.409698 340.075653,373.954102 339.708282,370.888367 
	C338.519501,360.967682 337.912262,350.978821 341.875702,341.455505 
	C344.703491,334.660736 349.324097,333.290802 355.513062,337.370056 
z"/>
<path fill="#FBFEFE" opacity="1.000000" stroke="none" 
	d="
M968.975830,354.243042 
	C968.278015,362.112823 968.008850,369.592102 966.687988,376.880798 
	C965.913330,381.155518 963.305176,385.057892 957.929810,384.966522 
	C952.668701,384.877106 950.336243,381.133881 949.108887,376.808105 
	C945.905151,365.516479 945.907166,354.117950 949.284058,342.871307 
	C950.504883,338.805328 952.753540,335.143524 957.832520,335.018890 
	C962.987061,334.892456 965.168945,338.618408 966.548279,342.609467 
	C967.782959,346.181915 968.190308,350.040253 968.975830,354.243042 
z"/>
<path fill="#F9FEFE" opacity="1.000000" stroke="none" 
	d="
M830.137451,338.832703 
	C831.817871,343.080536 833.264404,347.026184 834.972900,351.686584 
	C827.235962,351.686584 820.835266,351.686584 814.087219,351.686584 
	C814.814148,345.760620 814.971802,339.875458 820.819214,336.744385 
	C824.071289,335.003052 827.293518,335.796692 830.137451,338.832703 
z"/>
<path fill="#F9FEFE" opacity="1.000000" stroke="none" 
	d="
M1128.036133,336.000793 
	C1134.954346,337.453217 1137.919922,342.401886 1137.627930,351.685547 
	C1131.241455,351.685547 1124.842896,351.685547 1118.446289,351.685547 
	C1118.313843,342.335205 1121.146851,337.584198 1128.036133,336.000793 
z"/>
</svg>